<svg xmlns="http://www.w3.org/2000/svg" version="1.1" xmlns:xlink="http://www.w3.org/1999/xlink" xmlns:svgjs="http://svgjs.dev/svgjs" width="2000" height="691" viewBox="0 0 2000 691"><g transform="matrix(1,0,0,1,-1.2121212121212466,0.9378414875225758)"><svg viewBox="0 0 396 137" data-background-color="#ffffff" preserveAspectRatio="xMidYMid meet" height="691" width="2000" xmlns="http://www.w3.org/2000/svg" xmlns:xlink="http://www.w3.org/1999/xlink"><g id="tight-bounds" transform="matrix(1,0,0,1,0.2400000000000091,-0.18593962921937646)"><svg viewBox="0 0 395.52 137.37187925843875" height="137.37187925843875" width="395.52"><g><svg viewBox="0 0 632.5011950217838 219.68011173480662" height="137.37187925843875" width="395.52"><g transform="matrix(1,0,0,1,236.9811950217839,67.884343160221)"><svg viewBox="0 0 395.52 83.91142541436464" height="83.91142541436464" width="395.52"><g id="textblocktransform"><svg viewBox="0 0 395.52 83.91142541436464" height="83.91142541436464" width="395.52" id="textblock"><g><svg viewBox="0 0 395.52 83.91142541436464" height="83.91142541436464" width="395.52"><g transform="matrix(1,0,0,1,0,0)"><svg width="395.52" viewBox="5 -28.75 135.74 28.8" height="83.91142541436464" data-palette-color="#b12222"><path d="M5-28.75L5-28.75 10.7-28.75 21-19.05 21-11.5 11.3-20.65 11.3 0 5 0 5-28.75ZM39.45-28.75L39.45-28.75 33.8-28.75 23.45-19.05 23.45-11.5 33.15-20.65 33.15 0 39.45 0 39.45-28.75ZM44.45-3.4L44.45-9.75 50.15-13.2 58.35-13.2 58.35-9.35 50.8-9.35 50.8-5.25 58.35-5.25 58.35 0.05 50.15 0.05 44.45-3.4ZM50.8-15.05L44.45-15.05 44.45-18.5 50.15-22 58.35-22 58.35-17.3 50.8-17.3 50.8-15.05ZM74.45 0.05L74.45-18.5 68.75-22 60.55-22 60.55-17.3 68.1-17.3 68.1-13.2 60.55-13.2 60.55-9.35 68.1-9.35 68.1-5.25 60.75-5.25 60.75 0.05 74.45 0.05ZM83.95 0L83.95-21.85 90.2-21.85 90.2-19.7 97.7-21.85 97.7-17.2 90.2-17.2 90.2 0 83.95 0ZM106.45-15.05L106.45-19.1 99.95-21.85 99.95-15.05 106.45-15.05ZM140.74-9.7L140.74-3.45 135.04 0 126.99 0 126.99-5.25 134.69-5.25 134.69-9.3 127.14-9.3 127.14-13.2 135.04-13.2 140.74-9.7ZM110.94-12.75L110.94-18.4 116.64-21.85 124.74-21.85 124.74-17.2 117.24-17.2 117.24-13.2 124.74-13.2 124.74-9.3 116.64-9.3 110.94-12.75ZM110.94-6.95L117.24-6.95 117.24-5.25 124.74-5.25 124.74 0 116.64 0 110.94-3.45 110.94-6.95ZM140.74-15.05L134.49-15.05 134.49-17.2 126.99-17.2 126.99-21.85 135.04-21.85 140.74-18.4 140.74-15.05Z" opacity="1" transform="matrix(1,0,0,1,0,0)" fill="#b12222" class="wordmark-text-0" data-fill-palette-color="primary" id="text-0"></path></svg></g></svg></g></svg></g></svg></g><g><svg viewBox="0 0 217.17172135566233 219.68011173480662" height="219.68011173480662" width="217.17172135566233"><g><svg xmlns="http://www.w3.org/2000/svg" xmlns:xlink="http://www.w3.org/1999/xlink" version="1.1" x="0" y="0" viewBox="3.4358209412481653 4.255 88.29417905875184 89.31400000000001" enable-background="new 0 0 100 100" xml:space="preserve" height="219.68011173480662" width="217.17172135566233" class="icon-icon-0" data-fill-palette-color="accent" id="icon-0"><path d="M84.554 4.255c-3.956 0-7.176 3.219-7.176 7.174 0 0.387 0.039 0.765 0.099 1.135-4.092 2.764-9.443 7-15.568 12.325-4.184-1.993-8.861-3.113-13.796-3.113-4.216 0-8.241 0.823-11.934 2.303-8.546-4.33-15.099-4.867-18.489-1.478-3.615 3.615-2.559 10.319 1.195 17.912-1.891 4.094-2.954 8.646-2.954 13.445 0 4.956 1.127 9.652 3.138 13.851C0.588 89.162 3.108 91.712 4.198 92.802c0.469 0.469 1.055 0.767 1.897 0.767 1.784 0 4.716-1.335 10.114-5.214 3.358-2.414 7.331-5.58 11.733-9.347 5.522 4.455 12.538 7.131 20.169 7.131 5.171 0 10.056-1.233 14.39-3.409 3.422 1.423 6.504 2.168 9.096 2.168 2.577 0 4.677-0.725 6.17-2.218 3.033-3.033 2.954-8.486-0.202-15.778 1.748-3.965 2.728-8.34 2.728-12.943 0-7.611-2.661-14.608-7.095-20.124 5.15-5.988 9.264-11.255 11.862-15.254 3.721-0.262 6.67-3.365 6.67-7.15C91.73 7.474 88.511 4.255 84.554 4.255zM68.88 33.851c-5.615 6.406-12.317 13.548-19.557 20.787-1.203 1.202-2.43 2.414-3.659 3.618-1.404-0.985-3.109-1.569-4.951-1.569-1.909 0-3.67 0.63-5.102 1.681-5.973-6.453-10.321-12.584-13.106-17.84 4.847-9.204 14.504-15.497 25.608-15.497C56.256 25.03 63.617 28.417 68.88 33.851zM35.322 65.33c0-2.973 2.418-5.39 5.391-5.39 2.972 0 5.39 2.417 5.39 5.39 0 2.972-2.418 5.389-5.39 5.389C37.741 70.719 35.322 68.302 35.322 65.33zM19.991 24.902c1.997-1.996 6.534-1.603 12.413 0.984-4.737 2.662-8.735 6.486-11.606 11.085C18.316 31.162 18.081 26.812 19.991 24.902zM33.389 60.761c-0.832 1.326-1.32 2.889-1.32 4.569 0 1.666 0.483 3.22 1.304 4.542-1.906 1.731-3.707 3.335-5.405 4.817-5.411-5.26-8.783-12.608-8.783-20.731 0-3.423 0.602-6.707 1.697-9.756C24.099 49.713 28.496 55.486 33.389 60.761zM6.826 90.183c0.652-2.084 4.084-7.877 13.913-19.329 1.348 2.176 2.946 4.18 4.756 5.971C15.18 85.626 9.106 89.5 6.826 90.183zM48.112 82.885c-6.647 0-12.774-2.26-17.665-6.044 1.661-1.451 3.373-2.979 5.129-4.575 1.438 1.066 3.211 1.707 5.136 1.707 1.897 0 3.649-0.623 5.076-1.663 4.52 3.62 8.853 6.503 12.835 8.59C55.362 82.176 51.82 82.885 48.112 82.885zM75.468 80.378c-1.517 1.516-4.78 1.675-9.296 0.201 3.787-2.577 6.999-5.942 9.397-9.857C77.141 75.275 77.128 78.719 75.468 80.378zM77.038 53.958c0 10.755-5.903 20.15-14.637 25.135-4.148-1.89-9.028-4.896-14.386-9.16 0.844-1.336 1.341-2.911 1.341-4.603 0-1.752-0.526-3.379-1.424-4.741 1.24-1.215 2.479-2.438 3.691-3.65 7.151-7.151 13.796-14.222 19.403-20.606C74.791 41.216 77.038 47.327 77.038 53.958zM64.959 26.553c5.377-4.637 10.091-8.369 13.792-10.919 0.724 0.995 1.693 1.796 2.82 2.314-2.49 3.659-6.115 8.261-10.553 13.435C69.204 29.542 67.171 27.917 64.959 26.553zM84.554 15.352c-2.162 0-3.922-1.76-3.922-3.922 0-2.162 1.76-3.92 3.922-3.92 2.163 0 3.923 1.758 3.923 3.92C88.477 13.592 86.717 15.352 84.554 15.352z" fill="#b12222" data-fill-palette-color="accent"></path><circle cx="84.426" cy="36.093" r="2.9" fill="#b12222" data-fill-palette-color="accent"></circle><circle cx="63.021" cy="64.038" r="5.9" fill="#b12222" data-fill-palette-color="accent"></circle><circle cx="42.211" cy="77.572" r="1.2" fill="#b12222" data-fill-palette-color="accent"></circle><circle cx="70.555" cy="46.986" r="1.2" fill="#b12222" data-fill-palette-color="accent"></circle><circle cx="40.963" cy="32.373" r="1.9" fill="#b12222" data-fill-palette-color="accent"></circle><circle cx="24.738" cy="62.178" r="1.9" fill="#b12222" data-fill-palette-color="accent"></circle><circle cx="42.425" cy="46.986" r="3.3" fill="#b12222" data-fill-palette-color="accent"></circle></svg></g></svg></g></svg></g><defs></defs></svg><rect width="395.52" height="137.37187925843875" fill="none" stroke="none" visibility="hidden"></rect></g></svg></g></svg>