<svg xmlns="http://www.w3.org/2000/svg" version="1.1" xmlns:xlink="http://www.w3.org/1999/xlink" xmlns:svgjs="http://svgjs.dev/svgjs" width="2000" height="999" viewBox="0 0 2000 999"><g transform="matrix(1,0,0,1,-1.2121212121212466,-0.20601936094334405)"><svg viewBox="0 0 396 198" data-background-color="#050505" preserveAspectRatio="xMidYMid meet" height="999" width="2000" xmlns="http://www.w3.org/2000/svg" xmlns:xlink="http://www.w3.org/1999/xlink"><g id="tight-bounds" transform="matrix(1,0,0,1,0.2400000000000091,0.04083266613291414)"><svg viewBox="0 0 395.52 197.91833466773417" height="197.91833466773417" width="395.52"><g><svg viewBox="0 0 395.52 197.91833466773417" height="197.91833466773417" width="395.52"><g><svg viewBox="0 0 395.52 197.91833466773417" height="197.91833466773417" width="395.52"><g id="textblocktransform"><svg viewBox="0 0 395.52 197.91833466773417" height="197.91833466773417" width="395.52" id="textblock"><g><svg viewBox="0 0 395.52 197.91833466773417" height="197.91833466773417" width="395.52"><g transform="matrix(1,0,0,1,0,0)"><svg width="395.52" viewBox="-12.5 -31.25 62.45 31.25" height="197.91833466773417" data-palette-color="#ff0000"><g class="wordmark-text-0" data-fill-palette-color="primary" id="text-0"><path d="M9.1-2.4L8.6-0.15-12.5-2.4 9.1-2.4ZM10.25-7.25L9.7-5-11.35-7.25 10.25-7.25ZM11.35-12.05L10.85-9.8-10.2-12.05 11.35-12.05ZM12.5-16.85L11.95-14.6-9.05-16.85 12.5-16.85ZM13.6-21.65L13.1-19.4-7.9-21.65 13.6-21.65ZM14.75-26.45L14.2-24.2-6.75-26.45 14.75-26.45ZM15.85-31.25L15.35-29-5.6-31.25 15.85-31.25ZM23.25-15.15L20 0 10.1 0 17.4-31.25 29.8-31.25 30.7-15.35 31.05-15.35 37.55-31.25 49.95-31.25 46.25 0 36.3 0 38.4-15.15 38.05-15.15 31.8 0 24.55 0 23.5-15.15 23.25-15.15Z" fill="#ff0000" data-fill-palette-color="primary"></path></g></svg></g></svg></g></svg></g></svg></g></svg></g><defs></defs></svg><rect width="395.52" height="197.91833466773417" fill="none" stroke="none" visibility="hidden"></rect></g></svg></g></svg>